<svg width="15" height="15" viewBox="0 0 15 15" fill="none" xmlns="http://www.w3.org/2000/svg">
<path d="M12.1881 6.09375C12.1881 7.43848 11.7516 8.68066 11.0162 9.68848L14.7253 13.4004C15.0916 13.7666 15.0916 14.3613 14.7253 14.7275C14.3591 15.0937 13.7643 15.0937 13.3981 14.7275L9.68895 11.0156C8.68109 11.7539 7.43884 12.1875 6.09405 12.1875C2.72767 12.1875 0 9.45996 0 6.09375C0 2.72754 2.72767 0 6.09405 0C9.46042 0 12.1881 2.72754 12.1881 6.09375ZM6.09405 10.3125C6.64809 10.3125 7.1967 10.2034 7.70857 9.99137C8.22044 9.77935 8.68553 9.4686 9.0773 9.07686C9.46907 8.68511 9.77983 8.22004 9.99185 7.70819C10.2039 7.19635 10.313 6.64776 10.313 6.09375C10.313 5.53974 10.2039 4.99115 9.99185 4.4793C9.77983 3.96746 9.46907 3.50239 9.0773 3.11064C8.68553 2.7189 8.22044 2.40814 7.70857 2.19613C7.1967 1.98412 6.64809 1.875 6.09405 1.875C5.54001 1.875 4.99139 1.98412 4.47952 2.19613C3.96766 2.40814 3.50256 2.7189 3.1108 3.11064C2.71903 3.50239 2.40826 3.96746 2.19624 4.4793C1.98422 4.99115 1.87509 5.53974 1.87509 6.09375C1.87509 6.64776 1.98422 7.19635 2.19624 7.70819C2.40826 8.22004 2.71903 8.68511 3.1108 9.07686C3.50256 9.4686 3.96766 9.77935 4.47952 9.99137C4.99139 10.2034 5.54001 10.3125 6.09405 10.3125Z" fill="#8B5E40"/>
</svg>
